<?xml version="1.0" encoding="utf-8"?>
<!-- Generator: Adobe Illustrator 18.0.0, SVG Export Plug-In . SVG Version: 6.00 Build 0)  -->
<!DOCTYPE svg PUBLIC "-//W3C//DTD SVG 1.1//EN" "http://www.w3.org/Graphics/SVG/1.1/DTD/svg11.dtd">
<svg version="1.1" id="logo" xmlns="http://www.w3.org/2000/svg" xmlns:xlink="http://www.w3.org/1999/xlink" x="0px" y="0px"
	 viewBox="0 0 220 220" enable-background="new 0 0 220 220" xml:space="preserve">
<path stroke="#000000" stroke-miterlimit="10" d="M18.5,6.1c0,0-1.3,11.8,9,21.9c-1.5,1.9-17,23.7-1.4,51c1.7,3.4,2.8,3.6,0.1,9
	c-2.7,5.5-20,56.3-3.1,96.9c4.7,11.8,33.1,44.6,91.4,29c18.4-4.7,46.5-19.7,49-30.3c0.9-4.6-6.2-1.5-9.5-0.1
	c-3.3,1.4-38.8,14-45.4,11.4c2.7-4,12.4-30.7-26.8-34.8c-2-1.3-6.8-16.8,3.9-28c1.9-1.9,31.7-18.9,41.4-23.1
	c9.7-4.2,31.6-15.5,33.9-23.8c0.5-1.8-3.5-3.9-20.5-0.5c-3.5,0.8-25.5,8.1-29.3,9.1c-3.7,1-18.3,4-26.9,1.3c9.4-2.9,39.1-17.3,31-59
	c0.8-3.4,11.8-10.8,33.9-8.6c5.6,0.5,21.5,3.3,23.3-2.5c0.6-2.9-7.5-7.4-15-9.2c-7.5-1.9-39.2-7.4-51.8-0.6
	c-4.7-4.2-38.1-21.5-63.2-2.9C38.8,10.9,24.1,9.2,18.5,6.1z"/>
<path fill="#FFFFFF" d="M92.4,86c0,0,11.2-2.3,17.2-14.5c1.6-3.7,2.7-8.3,0.9-12.1c-0.5-1.1-2-1.3-2.4,3c-1.2,0.4-6.7,4.5-8,7.9
	c-0.4,1.1-2.2,6.2,0.7,5.3c-1.8,1.7-4.4,6-5,7.1C95.2,83.9,92.9,86,92.4,86z"/>
<path fill="#FFFFFF" d="M88.3,10.7c0,0,13.2,1.5,19.7,13.9c0.8,1.7-0.6,4.9-2.6,2.5c-0.8-0.9-2-3-2.2-3.7c-1.1,0.4-5.9-0.8-6.6-2.1
	c-0.7-1.3-2.1-5.4-2.2-6.6C93.5,13.5,88.8,10.7,88.3,10.7z"/>
<path fill="#FFFFFF" d="M70.6,90.3c0,0-0.8,5.2-9.5,10c-3.9,2.2-5.2,2.2-6.3,2.6c-1.1,0.4-5.9,3-7.2,4.7c1.9-3.5,3.1-12.1,5.6-18
	c1.1-2.9,3-8.8,3-10c0-1.2,1.4-0.5,1.4,0.7c0,1.2-0.1,3.5-1,6c-0.4,1.2-0.8,3-0.7,3.9c0.3-0.4,2-1.6,1.6,0.6c0,0.5-0.6,1.7-0.8,2
	c0.9-0.6,1.3-1,2-0.9c0.7,0.1,0.9,0.9,0.6,1.4c0.3,0.1,0.6,0.7-0.6,1.9c0.8-0.3,1.4-0.9,1.5-1.2c0.1-0.2,0.4,0.7,0.2,1.1
	c-0.2,0.4-0.9,1-1.1,1.1c0.2,0.6,0,0.8-0.2,0.9c-0.2,0.1-4.3,2.9-5.3,3.5c-1,0.5-2.1,1.4-2.2,1.6c1.1,0.1,2.2-0.1,3.8-1
	s9.2-5.2,9.9-5.7C66.1,95.1,69.9,92.8,70.6,90.3z"/>
<path fill="#FFFFFF" d="M39.6,14.4c0,0-5.1,0.1-5.1,0.7s-0.3,1.3,0.9,2.3C36.7,16.2,38.9,15,39.6,14.4z"/>
<path fill="#FFFFFF" d="M34.9,18.1c0,0-5.5,5.9-6.4,7.5c0,0-0.8-0.2-0.6-0.7c0.2-0.5,6-6.5,7-7.1"/>
<path fill="#FFFFFF" d="M47.7,207.4c0,0,0.1,0,0.2,0.1c1.9,0.9,16.3,7.6,30.7,6.9c15.5-0.7,34.6-8,31.6-34.4
	c-0.9-4.9-13.8-27.6-33.9-12.2c-6.8,6.3-9.1,25.5,13.3,25.1c3.5,0,5.4-7-2.3-8c-3.5,0-11.3-1.8-8.1-10.4c0.7-1.9,5.5-8.6,15.1-4.8
	c2.4,1.2,12.4,8.2,9.3,19.8c-0.7,2.9-3.9,17.2-22.8,19.3c-4.6,0.5-12.9,1.8-21.2,0.9S49.8,208.2,47.7,207.4z"/>
<path fill="#FFFFFF" d="M33.7,184.3c0,0,8,10.8,15.5,15.7c-6.3-1.2-14.7-5.9-15.5-16.2"/>
<path fill="#FFFFFF" d="M50.2,200.5c0,0,2.8,1.4,3.3,1.8c0.2-0.4-1.6-1.7-1.6-1.7S50.7,200.4,50.2,200.5z"/>
<path fill="none" stroke="#000000" stroke-miterlimit="10" d="M170.6,55.2"/>
<path stroke="#000000" stroke-miterlimit="10" d="M196.4,43.7c0,0-1.7-6.6-7.4-5.2c-5.7,1.3-8.3,4-7.7,8.3s3.3,12.5,15.1,6.8
	c3.1-2,6.6-5.7,4.6-12.9c-1-4-4.7-8.3-10.8-5.5c2.7-1.8,10.1-1.8,12.3,4.3s1.8,12.7-5,16.1s-14.6,3.4-17.3-4.4
	c-2.7-7.8,2.1-13.3,8.6-13.8C195.2,36.8,196.6,42.4,196.4,43.7z"/>
</svg>
