<?xml version="1.0" encoding="utf-8"?>
<!-- Generator: Adobe Illustrator 16.0.3, SVG Export Plug-In . SVG Version: 6.00 Build 0)  -->
<!DOCTYPE svg PUBLIC "-//W3C//DTD SVG 1.1//EN" "http://www.w3.org/Graphics/SVG/1.1/DTD/svg11.dtd" [
	<!ENTITY st0 "fill:none;">
]>
<svg version="1.1" id="レイヤー_1" xmlns="http://www.w3.org/2000/svg" xmlns:xlink="http://www.w3.org/1999/xlink" x="0px"
	 y="0px" width="595.28px" height="841.89px" viewBox="0 0 595.28 841.89" style="enable-background:new 0 0 595.28 841.89;"
	 xml:space="preserve">
<rect x="41.83" y="166.556" style="&st0;" width="511.475" height="511.476"/>
<g>
	<path d="M391.529,493.928c-10.792-10.553-23.021-22.513-21.657-38.039c1.26-14.365,3.909-25.341,6.552-34.379
		c-4.88,0.393-9.394,2.301-13.15,5.472c-14.588,12.313-15.768,31.308-3.886,49.858c9.628,15.03,23.162,25.357,37.102,22.021
		C394.935,497.266,393.266,495.625,391.529,493.928z"/>
	<path d="M461.833,382.32c4.505-25.023,6.314-51.512,3.401-72.584c-8.476-61.322-27.349-92.628-54.322-112.033
		c-26.973-19.405-74.027-28.185-108.711-0.24c-7.061,5.69-13.927,11.64-20.407,17.987c-5.087,4.982-9.879,10.271-14.313,15.843
		c-15.509,19.489-26.013,42.216-31.915,66.358c-4.459,18.243-9.015,36.488-12.127,55.02c-3.26,19.426-4.309,55.737-22.152,63.928
		c-16.021,7.353-47.783,9.313-63.967,41.915c-8.292,16.7-12.334,27.208-14.052,48.401c-0.893,11.007,1.218,29.413,4.009,40.096
		c5.611,21.477,16.803,43.725,40.239,61.384c25.216,19,63.621,24.183,93.374,18.778c32.635-5.929,64.861-38.438,75.06-70.205
		c5.008-15.597,4.751-28.037,3.119-44.229c-2.703-26.838-19.484-54.252-38.487-73.166c-8.129-8.089-18.538-13.413-28.826-18.668
		c-9.387-4.797-17.249-8.016-32.213-10.411c14.363,6.004,27.68,12.952,39.552,23.118c30.487,26.108,54.754,74.225,40.623,117.37
		c-3.195,9.752-10.094,21.06-16.398,29.062c-6.516,8.268-16.166,15.19-25.22,20.625c-32.791,19.684-79.449,14.887-108.3-9.771
		c-17.191-14.692-27.651-35.742-30.269-58.096c-3.584-30.595-0.331-64.825,20.426-89.189c13.784-16.178,32.648-18.619,50.938-26.722
		c9.273-4.109,13.764-11.948,16.371-21.387c3.559-12.878,6.07-26.314,8.564-39.433c1.601-8.421,3.118-16.858,4.79-25.266
		c5.102-25.668,11.745-51.55,25.662-74.012c11.382-18.37,26.163-34.43,42.446-48.556c31.829-27.614,71.14-19.212,96.396-0.566
		c25.257,18.648,41.742,48.109,49.679,107.034c2.616,19.415,0.376,43.12-3.806,66.182c-7.442,41.042-34.129,59.589-40.711,63.6
		c-0.034-0.058-0.063-0.123-0.099-0.18c-4.001-6.661-8.375-11.719-12.868-15.374c-2.974,9.468-5.466,18.521-5.504,27.403
		c-0.043,10.825,9.813,20.003,19.708,28.843c1.626-5.107,2.602-11.588,2.776-18.055C422.174,459.348,454.033,425.657,461.833,382.32
		z"/>
</g>
<path d="M284.762,506.3c11.607,19.323,7.1,70.305-6.245,80.096c-27.631,20.275-56.279,1.976-75.366-27.827
	c-19.09-29.803-17.195-60.318,6.241-80.099C228.854,462.044,260.93,466.627,284.762,506.3z"/>
<path d="M395.773,525.781c-5.372-5.916-13.895-13.042-22.963-18.026c-10.123-5.563-21.839-12.276-32.453-13.442
	c12.673,11.078,25.801,25.765,30.604,37.639c14.6,36.108-21.019,83.594-58.862,79.403c3.656,10.907,14.833,19.392,25.459,22.199
	c22.366,5.911,49.095-5.021,65.017-37.04C414.681,572.173,413.468,545.271,395.773,525.781z"/>
<path d="M204.109,399.045c-3.101,0.936-6.965-0.993-9.666-2.282c-5.768-2.753-11.621-7.104-13.543-13.483
	c-1.778-5.893,0.021-12.38,0.499-18.346c0.628-7.862,0.252-15.772,0.151-23.646c-0.167-12.951-0.705-25.938,0.22-38.872
	c1.318-18.432,5.746-36.922,12.66-54.051c3.859-9.559,8.364-18.837,13.812-27.599c4.417-7.1,9.556-13.786,15.667-19.519
	c18.493-17.356,44.25-22.807,68.427-15.961c45.334,12.836,75.622,55.043,90.79,96.136c13.512,36.611,20.621,67.973,18.329,109.978
	c-1.179,21.615-14.425,43.525-14.512,64.917c-0.072,17.949,20.983,30.646,32.45,42.937c13.064,14,24.678,30.093,27.889,49.479
	c4.582,27.667,0.494,58.042-10.962,75.718c-13.26,20.458-26.465,36.547-52.425,41.1c-37.572,6.59-89.056-15.302-99.098-33.191
	c0.925,1.648,7.887,3.352,9.736,4.112c3.098,1.274,6.214,2.504,9.358,3.66c5.833,2.147,11.735,4.158,17.734,5.797
	c13.939,3.806,29.034,8.211,43.575,6.295c20.663-2.722,43.251-16.29,53.982-34.354c10.268-17.288,13.69-42.848,9.583-69.907
	c-2.878-18.963-13.286-34.703-24.995-48.396c-10.279-12.02-30.582-25.759-29.048-43.248c3.187-36.29,15.202-49.447,14.244-70.593
	c-1.749-38.573-2.349-58.04-14.461-93.848c-13.595-40.192-22.76-65.601-74.991-94.765c-19.803-11.058-51.978-6.094-68.554,10.881
	c-25.134,25.74-37.802,64.147-38.825,99.248c-0.337,11.555,0.161,23.125,0.415,34.677c0.209,9.524,0.458,18.756-1.044,28.182
	c-1.029,6.455-1.083,14.539,3.417,19.83C197.571,393.04,200.972,396.407,204.109,399.045z"/>
<path d="M287.02,456.473c-6.388-6.554-14.125-11.352-22.564-14.815c-17.402-7.144-38.683-10.299-56.988-4.941
	c-10.458,3.061-21.757,9.487-29.674,17.029c-32.975,31.419-37.165,93.679-2.886,125.341c7.773,7.179,13.687,12.146,23.25,16.729
	c9.194,4.406,20.413,8.789,32.269,9.9c-19.227-14.154-38.718-25.627-50.699-42.511c-12.476-17.579-11.487-33.577-8.926-55.554
	c2.097-17.979,7.455-32.813,20.629-43.696c7.512-6.206,16.038-13.175,32.078-12.602c31.167,1.113,54.787,12.188,80.372,29.217
	C300.646,470.255,288.25,457.736,287.02,456.473z"/>
<g>
</g>
<g>
</g>
<g>
</g>
<g>
</g>
<g>
</g>
<g>
</g>
</svg>
